<svg id="Layer_1" data-name="Layer 1" xmlns="http://www.w3.org/2000/svg" viewBox="0 0 77.73 69.56"><defs><style>.cls-1{fill:#ffff76}.cls-2{fill:#000075}</style></defs><title>01_RU_Monogram_RGB</title><path class="cls-1" d="M454.3 268.6a15.24 15.24 0 0 0-6.32-1.94 7.46 7.46 0 0 1-2.24-.47 10.38 10.38 0 0 1-1.27-.66c-2.48-1.42-5.2-2.55-9-.93a34.49 34.49 0 0 0-31.76 5.79 14.18 14.18 0 0 0-11.71 6 15.65 15.65 0 0 1-3.39 3.47c-7.09 5.35-6 10.18-4.73 12.58l.17.33c.91 1.76 3 5.88 6.58 6.86 0 .48.06 1 .12 1.46a34.36 34.36 0 0 0 11 21.82A10 10 0 0 0 417 331a34.59 34.59 0 0 0 23.2-2.54l.19.07a10 10 0 0 0 12.76-11.07 34.46 34.46 0 0 0 4.62-30.92 17.68 17.68 0 0 0 2.15-5.32c.1-.37.19-.71.28-1 1.07-3.35.87-8.1-5.9-11.62z" transform="translate(-382.97 -262.98)"/><path class="cls-2" d="M427.25 271.57a1 1 0 0 0-1.4-.22 9.67 9.67 0 0 1-8.94.93 1 1 0 0 0-.79 1.84 10.77 10.77 0 0 0 4.3.9A12.05 12.05 0 0 0 427 273a1 1 0 0 0 .25-1.43zM455.88 288.73a1 1 0 1 0-1.92.54 30.4 30.4 0 0 1 1 5.07 29.75 29.75 0 0 1-4.07 18.51 1 1 0 1 0 1.72 1 31.73 31.73 0 0 0 4.34-19.74 32.28 32.28 0 0 0-1.07-5.38zM408.74 272.14a1 1 0 0 0 .53-.15 29.73 29.73 0 0 1 12.73-4.34 30.07 30.07 0 0 1 9.23.45 1 1 0 1 0 .4-2 32.13 32.13 0 0 0-23.38 4.15 1 1 0 0 0 .49 1.89zM395.26 300.62q-.05-.49-.09-1a1 1 0 1 0-2 .14q0 .52.09 1a31.73 31.73 0 0 0 8.3 18.35 1 1 0 0 0 1.47-1.36 29.74 29.74 0 0 1-7.77-17.13zM435.82 325.51c-.36.14-.73.25-1.09.38h-.13a.5.5 0 0 0-.32.17c-.39.12-.78.23-1.17.34a.49.49 0 0 0-.5-.3.5.5 0 0 0-.45.55c-.33.08-.67.14-1 .21a.49.49 0 0 0 0-.11.5.5 0 0 0-1 .1.49.49 0 0 0 .06.2c-.37.06-.74.11-1.1.16a.49.49 0 0 0 0-.25.5.5 0 0 0-1 .1.48.48 0 0 0 .12.26h-.07c-.36 0-.72.05-1.09.08a.49.49 0 0 0 0-.24.5.5 0 0 0-1 .1.49.49 0 0 0 .07.2h-1.07a.47.47 0 0 0 0-.1.5.5 0 0 0-1 .1l-1-.06a.49.49 0 0 0-.86-.06c-.59-.05-1.19-.12-1.78-.21a1 1 0 1 0-.3 2 31.9 31.9 0 0 0 4.84.37 32.4 32.4 0 0 0 3.38-.18 32.05 32.05 0 0 0 8.09-1.93 1 1 0 1 0-.63-1.88z" transform="translate(-382.97 -262.98)"/><path class="cls-2" d="M443.17 305.21a9.12 9.12 0 0 0 3.33-.72 1 1 0 0 0-.76-1.85c-3.45 1.42-5.47-.21-5.55-.27l-.09-.05c-4-3.39-9.11-5.92-14.94-5.31-6.23.65-10.89 4.69-14.24 9.25a12.83 12.83 0 0 1-8.16 2.13 1 1 0 1 0-.13 2h1.08a15.32 15.32 0 0 0 5-.85 51.34 51.34 0 0 0-4.66 10.68 8 8 0 0 0 15.32 4.61c1.77-5.8 4.29-8.8 7.71-9.16 3.84-.4 6 1.25 9.13 7.06a8 8 0 1 0 14.09-7.57 49.45 49.45 0 0 0-7.13-9.95zm5.89 15.5a6 6 0 0 1-1.21 2.18.49.49 0 0 0-.53-.37.5.5 0 0 0-.08 1 6 6 0 0 1-1.09.76 5.86 5.86 0 0 1-6.25-.38.46.46 0 0 0 0-.08.5.5 0 0 0-.55-.45h-.09a6 6 0 0 1-.84-1 .5.5 0 0 0-.27-.94.49.49 0 0 0-.26.12c-.21-.38-.41-.75-.62-1.09a.5.5 0 0 0-.51-.85c-.23-.37-.45-.72-.68-1a.49.49 0 0 0 .21-.45.5.5 0 0 0-.55-.44.49.49 0 0 0-.23.1c-.27-.36-.54-.69-.81-1a.49.49 0 0 0 .39-.53.5.5 0 0 0-1-.1 9 9 0 0 0-2.25-1.69.49.49 0 0 0-.52-.34h-.13a8.84 8.84 0 0 0-4.3-.47 8.12 8.12 0 0 0-3.71 1.33c-2.43 1.62-4.31 4.68-5.69 9.23a6 6 0 0 1-10.82 1.43.49.49 0 0 0 .2-.45.5.5 0 0 0-.55-.45h-.1a6 6 0 0 1-.42-3 .49.49 0 0 0 .21 0 .5.5 0 0 0 .45-.55.49.49 0 0 0-.46-.44c.09-.31.22-.72.39-1.23a.49.49 0 0 0 .4.15.5.5 0 0 0-.1-1q.21-.59.47-1.27a.49.49 0 0 0 .42.17.5.5 0 0 0-.1-1c.16-.39.33-.79.51-1.21a.5.5 0 0 0 .82-.44.49.49 0 0 0-.43-.43c.17-.37.35-.76.54-1.14a.49.49 0 0 0 .22 0 .5.5 0 0 0 .45-.55.49.49 0 0 0-.23-.36q.31-.6.65-1.21a.44.44 0 0 0 .34-.6 35.79 35.79 0 0 1 2.67-4 .5.5 0 1 0 .59-.73 24 24 0 0 1 3.46-3.45 2.43 2.43 0 0 0 .07 1 5.36 5.36 0 0 0 1.82 2.51.5.5 0 0 0 .31.25 11.76 11.76 0 0 0 7.46 2.27 9.69 9.69 0 0 0 3.83-1.42.49.49 0 0 0 .39-.28 12 12 0 0 0 2.36-2 .5.5 0 0 0 .44-.55 6.14 6.14 0 0 0 1.23-2.62 2.6 2.6 0 0 0 0-.49l.77.46a.5.5 0 1 0 .75.49 26.84 26.84 0 0 1 2.27 1.72l.23.17q.7.6 1.36 1.22a.49.49 0 0 0-.33.51.5.5 0 0 0 1 .11 47 47 0 0 1 7.61 10.34 6 6 0 0 1 .69 2.35.49.49 0 0 0-.4-.15.5.5 0 1 0 .1 1 .49.49 0 0 0 .31-.16 6 6 0 0 1-.29 1.49zM418.87 279.33a1 1 0 0 0-1.27 1.55 7.8 7.8 0 0 1 2.26 5.09 1 1 0 0 0 1 .9h.14a1 1 0 0 0 .89-1.1 9.75 9.75 0 0 0-3.02-6.44zM427.41 278.43a9.73 9.73 0 0 0-1.58 6.91 1 1 0 0 0 1 .9h.11a1 1 0 0 0 .89-1.1 7.8 7.8 0 0 1 1.15-5.44 1 1 0 1 0-1.57-1.27zM397 292.29c0-.21 0-.45.06-.72.17-2 .44-5.45 3.34-8a9.54 9.54 0 0 1 5.16-2.27 1 1 0 1 0-.1-2H405a.5.5 0 1 0-1-.07.49.49 0 0 0 .1.23 11.67 11.67 0 0 0-5 2.55 10.85 10.85 0 0 0-1.65 1.79.49.49 0 0 0-.51-.31.5.5 0 0 0-.45.55.49.49 0 0 0 .49.44 11 11 0 0 0-.61 1.14.49.49 0 0 0-.67.52.49.49 0 0 0 .29.39c-.15.41-.28.81-.38 1.2a.49.49 0 0 0-.25 0 .5.5 0 0 0-.44.55.49.49 0 0 0 .48.44 23.56 23.56 0 0 0-.33 2.67c0 .25 0 .47-.06.67-.23 2.12-.69 3.41-2.38 3.72-2.29.44-4.27-3.42-5-4.87l-.2-.38a3.65 3.65 0 0 1-.4-1.26.49.49 0 0 0 .5.3.5.5 0 1 0-.1-1 .49.49 0 0 0-.43.41 5.61 5.61 0 0 1 1.67-3.8.49.49 0 0 0 .44.2.5.5 0 0 0 .45-.55.49.49 0 0 0-.22-.35A17.82 17.82 0 0 1 391 283l.33-.26a.49.49 0 0 0 .51.32.5.5 0 0 0 .44-.55.49.49 0 0 0-.23-.36 18 18 0 0 0 2-2 .5.5 0 1 0 .43-.36.49.49 0 0 0-.17.05c.3-.36.56-.71.82-1l.1-.12a.49.49 0 0 0 .14 0 .5.5 0 0 0 .45-.55.49.49 0 0 0 0-.15 8.09 8.09 0 0 1 1.94-1.79.49.49 0 0 0 .44.19.5.5 0 0 0 .44-.55.49.49 0 0 0 0-.14 10.23 10.23 0 0 1 7.33-1.1.49.49 0 0 0-.32.51.5.5 0 1 0 1-.1.49.49 0 0 0-.15-.3c.38.09.78.2 1.19.33a.49.49 0 0 0 .7.25 22.6 22.6 0 0 1 2.47 1.09.49.49 0 0 0 0 .21.5.5 0 0 0 .89.25c.35.2.71.39 1.07.61a1 1 0 1 0 1-1.71c-8.81-5.33-14-3.24-17.12-1.21a11.71 11.71 0 0 0-3.08 3.06 17.77 17.77 0 0 1-3.78 3.85c-5.61 4.23-5.36 7.8-4.17 10l.19.36c.95 1.84 3.08 6 6.4 6a4.09 4.09 0 0 0 .77-.07c3.48-.64 3.84-4.02 3.97-5.47zM453.37 270.37a13.33 13.33 0 0 0-5.6-1.72 9.26 9.26 0 0 1-2.76-.6 11.61 11.61 0 0 1-1.55-.8c-2.57-1.48-5.77-3.31-12.22 2.74a1 1 0 0 0 1.37 1.46c.59-.56 1.14-1 1.66-1.43a.48.48 0 0 0 0 .09.5.5 0 0 0 1-.1.49.49 0 0 0-.39-.43c3.69-2.68 5.56-1.75 7.46-.66a.5.5 0 1 0 .86.48 9.58 9.58 0 0 0 1.11.53 10.39 10.39 0 0 0 1.61.48.5.5 0 1 0 .55.44.49.49 0 0 0-.28-.39c.46.09.88.13 1.29.17a.48.48 0 0 0 0 .11.5.5 0 0 0 .55.45.49.49 0 0 0 .44-.45 11.68 11.68 0 0 1 4.07 1.41l.14.08a.47.47 0 0 0 .68.38c2.68 1.6 3.42 3.24 3.43 4.71h-.06a.5.5 0 0 0-.44.55.49.49 0 0 0 .42.43 7.36 7.36 0 0 1-.2.78l-.14.5a.49.49 0 0 0-.42-.17.5.5 0 0 0 .1 1h.1c-.14.53-.29 1.05-.45 1.54a.5.5 0 1 0-.44.58.49.49 0 0 0 .29-.15 9.36 9.36 0 0 1-.67 1.56.49.49 0 0 0-.51-.32.5.5 0 0 0-.44.55.49.49 0 0 0 .47.44 1.5 1.5 0 0 1-1.5.53c-1.48-.33-2.15-1.12-3.42-3.35-.28-.5-.5-.93-.69-1.31a7.63 7.63 0 0 0-2.69-3.31.49.49 0 0 0 0-.23.5.5 0 0 0-.55-.44.49.49 0 0 0-.28.14c-.44-.28-.94-.57-1.52-.9-.28-.16-.56-.29-.84-.42a.5.5 0 0 0-.55-.45.49.49 0 0 0-.3.15 11.63 11.63 0 0 0-4.64-.67.49.49 0 0 0 .31-.51.5.5 0 1 0-.61.53h-.18a1 1 0 1 0 .32 2 9.4 9.4 0 0 1 5.52 1.15c.71.39 1.27.73 1.72 1a5.69 5.69 0 0 0-3.54 1.44 1 1 0 1 0 1.32 1.5 4.33 4.33 0 0 1 4.43-.59l.27.52c.21.41.44.86.74 1.39 1.29 2.26 2.31 3.78 4.73 4.32a4 4 0 0 0 .87.1c3.06 0 4.12-4 4.77-6.44.11-.4.2-.76.3-1.07 1.13-3.93-.49-6.97-5.02-9.32zM417.72 295.24a1 1 0 0 0 .59-.19c.25-.18 6.07-4.31 12.94-1.35a1 1 0 0 0 .79-1.84c-7.94-3.42-14.63 1.37-14.91 1.58a1 1 0 0 0 .59 1.8zM442.4 290.18a5 5 0 1 0 5.5 4.45 5 5 0 0 0-5.5-4.45zm1.55 4.91a1.25 1.25 0 1 1 1.11-1.37 1.25 1.25 0 0 1-1.06 1.37zM407.68 303.88a5 5 0 1 0-5.5-4.45 5 5 0 0 0 5.5 4.45zm.21-7.51a1.25 1.25 0 1 1-1.11 1.37 1.25 1.25 0 0 1 1.11-1.37zM435.34 288a1 1 0 0 0 1.4.18 9.61 9.61 0 0 1 8.9-1.41 1 1 0 0 0 .73-1.86 12 12 0 0 0-7-.26 11.11 11.11 0 0 0-3.89 1.95 1 1 0 0 0-.14 1.4z" transform="translate(-382.97 -262.98)"/><path class="cls-2" d="M400.47 292.65a1 1 0 0 0 1.41.13 9.63 9.63 0 0 1 8.85-1.73 1 1 0 0 0 .66-1.89 9.84 9.84 0 0 0-1.77-.4 11.41 11.41 0 0 0-9 2.47 1 1 0 0 0-.15 1.42zM403.48 285.59a1 1 0 0 0 .92.62 1 1 0 0 0 .38-.08 10.63 10.63 0 0 1 4.66-.7 1 1 0 1 0 .23-2 12.52 12.52 0 0 0-5.66.84 1 1 0 0 0-.53 1.32z" transform="translate(-382.97 -262.98)"/><circle class="cls-2" cx="408.37" cy="325.11" r=".5" transform="rotate(-6 -2292.35 3847.3)"/><circle class="cls-2" cx="407.17" cy="323.23" r=".5" transform="rotate(-6 -2293.31 3845.527)"/><circle class="cls-2" cx="414.71" cy="318.41" r=".5" transform="rotate(-6 -2285.97 3840.554)"/><circle class="cls-2" cx="408.74" cy="319.04" r=".5" transform="rotate(-6 -2291.473 3841.51)"/><circle class="cls-2" cx="409.52" cy="316.95" r=".5" transform="rotate(-6 -2290.972 3839.24)"/><circle class="cls-2" cx="419.47" cy="315.9" r=".5" transform="rotate(-6 -2280.693 3838.439)"/><path class="cls-2" d="M418.63 317.5a.49.49 0 0 0-.39.27 3.42 3.42 0 0 0-.51-1.23.5.5 0 1 0-.66-.72 4 4 0 0 0-.4-.33l-2-1.35a.49.49 0 0 0-.28-.19l-1.06-.72-.71 1a.49.49 0 0 0-.39-.14.5.5 0 0 0-.44.55.49.49 0 0 0 .29.39l-.81 1.21a.49.49 0 0 0-.25.37l-2.75 4.08a.5.5 0 1 0-.38.87l1.35.91a.49.49 0 0 0-.15 0 .5.5 0 1 0 .55.45.49.49 0 0 0-.12-.26l1.54-2.28.37.25a.48.48 0 0 0 0 .1.5.5 0 0 0 .73.39l.08.06-.07 3a.49.49 0 0 0-.32.51.5.5 0 0 0 .55.45.49.49 0 0 0 .38-.27l1.33.9v-.88a.48.48 0 0 0 .25 0 .5.5 0 1 0-.1-1h-.12l.06-1.94a3.44 3.44 0 0 0 .48 0 .49.49 0 0 0-.08.32.5.5 0 1 0 1-.1.49.49 0 0 0-.15-.3 3.58 3.58 0 0 0 2.2-1.51.49.49 0 0 0 .28.06.5.5 0 0 0 .45-.55.49.49 0 0 0-.29-.4 3.57 3.57 0 0 0 .2-1.34.49.49 0 0 0 .43.19.5.5 0 1 0-.09-.82zm-4.51 2.56L414 320a1.58 1.58 0 0 1-.45-.2l-1.42-1 .1-.15a.5.5 0 1 0 .43-.59l.76-1.13a.49.49 0 0 0 .18 0 .5.5 0 0 0 .45-.55.49.49 0 0 0-.1-.24l.16-.24 1.42 1a1.63 1.63 0 0 1 .36 2.33 1.69 1.69 0 0 1-1.77.83z" transform="translate(-382.97 -262.98)"/><circle class="cls-2" cx="418.27" cy="314.02" r=".5" transform="rotate(-6 -2281.934 3836.556)"/><circle class="cls-2" cx="416.28" cy="314.23" r=".5" transform="rotate(-6 -2284.229 3836.532)"/><circle class="cls-2" cx="410.31" cy="314.85" r=".5" transform="rotate(-6 -2290.38 3837.07)"/><circle class="cls-2" cx="411.1" cy="312.76" r=".5" transform="rotate(-6 -2289.14 3835.318)"/><circle class="cls-2" cx="413.08" cy="312.55" r=".5" transform="rotate(-6 -2287.578 3834.73)"/><circle class="cls-2" cx="415.07" cy="312.34" r=".5" transform="rotate(-6 -2285.098 3834.86)"/><circle class="cls-2" cx="417.06" cy="312.13" r=".5" transform="rotate(-6 -2283.541 3834.367)"/><circle class="cls-2" cx="419.05" cy="311.92" r=".5" transform="rotate(-6 -2281.613 3834.086)"/><circle class="cls-2" cx="421.04" cy="311.71" r=".5" transform="rotate(-6 -2279.409 3834.01)"/><circle class="cls-2" cx="423.03" cy="311.51" r=".5" transform="rotate(-6 -2277.486 3833.824)"/><circle class="cls-2" cx="425.02" cy="311.3" r=".5" transform="rotate(-6 -2275.648 3833.442)"/><circle class="cls-2" cx="427.01" cy="311.09" r=".5" transform="rotate(-6 -2273.168 3833.572)"/><circle class="cls-2" cx="429" cy="310.88" r=".5" transform="rotate(-6 -2271.706 3833.074)"/><circle class="cls-2" cx="430.99" cy="310.67" r=".5" transform="rotate(-6 -2269.226 3833.204)"/><circle class="cls-2" cx="432.97" cy="310.46" r=".5" transform="rotate(-6 -2267.76 3832.611)"/><circle class="cls-2" cx="434.96" cy="310.25" r=".5" transform="rotate(-6 -2265.555 3832.536)"/><circle class="cls-2" cx="436.95" cy="310.04" r=".5" transform="rotate(-6 -2263.723 3832.249)"/><circle class="cls-2" cx="438.94" cy="309.83" r=".5" transform="rotate(-6 -2261.795 3831.967)"/><circle class="cls-2" cx="440.93" cy="309.62" r=".5" transform="rotate(-6 -2259.776 3831.786)"/><circle class="cls-2" cx="442.92" cy="309.41" r=".5" transform="rotate(-6 -2257.2 3831.921)"/><circle class="cls-2" cx="420.25" cy="313.81" r=".5" transform="rotate(-6 -2280.468 3835.963)"/><circle class="cls-2" cx="422.24" cy="313.6" r=".5" transform="rotate(-6 -2278.45 3835.782)"/><circle class="cls-2" cx="424.23" cy="313.39" r=".5" transform="rotate(-6 -2276.43 3835.601)"/><circle class="cls-2" cx="426.22" cy="313.18" r=".5" transform="rotate(-6 -2274.503 3835.32)"/><circle class="cls-2" cx="428.21" cy="312.97" r=".5" transform="rotate(-6 -2272.484 3835.138)"/><circle class="cls-2" cx="430.2" cy="312.76" r=".5" transform="rotate(-6.01 -2266.284 3828.805)"/><circle class="cls-2" cx="432.19" cy="312.55" r=".5" transform="rotate(-6 -2268.543 3834.77)"/><circle class="cls-2" cx="434.18" cy="312.34" r=".5" transform="rotate(-6 -2265.967 3834.906)"/><circle class="cls-2" cx="436.17" cy="312.14" r=".5" transform="rotate(-6 -2264.039 3834.624)"/><circle class="cls-2" cx="421.46" cy="315.69" r=".5" transform="rotate(-6 -2278.77 3838.253)"/><circle class="cls-2" cx="426.64" cy="317.16" r=".5" transform="rotate(-6 -2273.583 3839.673)"/><circle class="cls-2" cx="428.63" cy="316.95" r=".5" transform="rotate(-6 -2272.021 3839.085)"/><circle class="cls-2" cx="423.87" cy="319.46" r=".5" transform="rotate(-6 -2276.841 3841.607)"/><circle class="cls-2" cx="425.85" cy="319.25" r=".5" transform="rotate(-6 -2274.732 3841.526)"/><circle class="cls-2" cx="427.84" cy="319.04" r=".5" transform="rotate(-6 -2272.709 3841.25)"/><circle class="cls-2" cx="429.83" cy="318.83" r=".5" transform="rotate(-6 -2270.324 3841.374)"/><circle class="cls-2" cx="431.82" cy="318.63" r=".5" transform="rotate(-6 -2268.858 3840.781)"/><circle class="cls-2" cx="423.08" cy="321.55" r=".5" transform="rotate(-6 -2277.624 3843.766)"/><circle class="cls-2" cx="425.07" cy="321.35" r=".5" transform="rotate(-6 -2275.6 3843.49)"/><circle class="cls-2" cx="427.06" cy="321.14" r=".5" transform="rotate(-6.03 -2261.264 3825.051)"/><circle class="cls-2" cx="429.05" cy="320.93" r=".5" transform="rotate(-6 -2271.564 3843.127)"/><circle class="cls-2" cx="431.04" cy="320.72" r=".5" transform="rotate(-6 -2269.545 3842.946)"/><circle class="cls-2" cx="433.03" cy="320.51" r=".5" transform="rotate(-6.01 -2263.54 3836.59)"/><circle class="cls-2" cx="422.29" cy="323.65" r=".5" transform="rotate(-6 -2278.307 3845.835)"/><circle class="cls-2" cx="424.28" cy="323.44" r=".5" transform="rotate(-6 -2276.383 3845.649)"/><circle class="cls-2" cx="426.27" cy="323.23" r=".5" transform="rotate(-6 -2274.455 3845.367)"/><circle class="cls-2" cx="428.26" cy="323.02" r=".5" transform="rotate(-6 -2272.437 3845.186)"/><circle class="cls-2" cx="430.25" cy="322.81" r=".5" transform="rotate(-6 -2270.418 3845.004)"/><circle class="cls-2" cx="432.24" cy="322.6" r=".5" transform="rotate(-6 -2268.4 3844.823)"/><circle class="cls-2" cx="421.51" cy="325.74" r=".5" transform="rotate(-6 -2279.09 3847.994)"/><circle class="cls-2" cx="423.5" cy="325.53" r=".5" transform="rotate(-6.01 -2272.974 3841.634)"/><circle class="cls-2" cx="425.49" cy="325.32" r=".5" transform="rotate(-6 -2275.238 3847.526)"/><circle class="cls-2" cx="427.48" cy="325.11" r=".5" transform="rotate(-6 -2273.215 3847.25)"/><circle class="cls-2" cx="429.47" cy="324.91" r=".5" transform="rotate(-6 -2271.196 3847.068)"/><circle class="cls-2" cx="431.45" cy="324.7" r=".5" transform="rotate(-6 -2269.273 3846.882)"/><circle class="cls-2" cx="433.44" cy="324.49" r=".5" transform="rotate(-6 -2267.16 3846.706)"/><circle class="cls-2" cx="435.43" cy="324.28" r=".5" transform="rotate(-6 -2265.236 3846.52)"/><circle class="cls-2" cx="434.23" cy="322.39" r=".5" transform="rotate(-6 -2266.472 3844.542)"/><circle class="cls-2" cx="438.16" cy="311.93" r=".5" transform="rotate(-6 -2262.482 3834.132)"/><circle class="cls-2" cx="440.15" cy="311.72" r=".5" transform="rotate(-6 -2260.554 3833.85)"/><circle class="cls-2" cx="433.39" cy="314.44" r=".5" transform="rotate(-6 -2266.745 3836.97)"/><circle class="cls-2" cx="435.38" cy="314.23" r=".5" transform="rotate(-6 -2264.821 3836.783)"/><circle class="cls-2" cx="437.37" cy="314.02" r=".5" transform="rotate(-6.01 -2259.19 3830.132)"/><circle class="cls-2" cx="439.36" cy="313.81" r=".5" transform="rotate(-6 -2260.78 3836.326)"/><circle class="cls-2" cx="440.56" cy="315.7" r=".5" transform="rotate(-6 -2260 3837.897)"/><circle class="cls-2" cx="441.77" cy="317.58" r=".5" transform="rotate(-6 -2258.855 3839.775)"/><circle class="cls-2" cx="443.76" cy="317.37" r=".5" transform="rotate(-6 -2256.932 3839.589)"/><circle class="cls-2" cx="442.97" cy="319.46" r=".5" transform="rotate(-6 -2257.71 3841.652)"/><circle class="cls-2" cx="444.12" cy="311.3" r=".5" transform="rotate(-6 -2256.331 3833.593)"/><circle class="cls-2" cx="417.85" cy="310.04" r=".5" transform="rotate(-6 -2282.854 3832.203)"/><circle class="cls-2" cx="415.86" cy="310.25" r=".5" transform="rotate(-6 -2284.777 3832.39)"/><circle class="cls-2" cx="413.87" cy="310.46" r=".5" transform="rotate(-6 -2286.615 3832.771)"/><circle class="cls-2" cx="411.88" cy="310.67" r=".5" transform="rotate(-6 -2288.262 3833.163)"/><circle class="cls-2" cx="412.67" cy="308.57" r=".5" transform="rotate(-6 -2288.041 3830.783)"/><circle class="cls-2" cx="414.66" cy="308.36" r=".5" transform="rotate(-6 -2286.018 3830.506)"/><circle class="cls-2" cx="416.64" cy="308.15" r=".5" transform="rotate(-6 -2284 3830.325)"/><circle class="cls-2" cx="418.63" cy="307.95" r=".5" transform="rotate(-6 -2282.076 3830.139)"/><circle class="cls-2" cx="420.62" cy="307.74" r=".5" transform="rotate(-6.01 -2275.859 3823.813)"/><circle class="cls-2" cx="432.56" cy="306.48" r=".5" transform="rotate(-6 -2267.941 3828.775)"/><circle class="cls-2" cx="434.55" cy="306.27" r=".5" transform="rotate(-6 -2265.923 3828.594)"/><circle class="cls-2" cx="436.53" cy="306.06" r=".5" transform="rotate(-6 -2263.628 3828.618)"/><circle class="cls-2" cx="438.52" cy="305.85" r=".5" transform="rotate(-6 -2262.162 3828.026)"/><circle class="cls-2" cx="419.84" cy="309.83" r=".5" transform="rotate(-6 -2280.835 3832.022)"/><circle class="cls-2" cx="421.83" cy="309.62" r=".5" transform="rotate(-6 -2278.817 3831.84)"/><circle class="cls-2" cx="423.81" cy="309.41" r=".5" transform="rotate(-6 -2276.336 3831.97)"/><circle class="cls-2" cx="425.8" cy="309.2" r=".5" transform="rotate(-6 -2274.87 3831.378)"/><circle class="cls-2" cx="427.79" cy="308.99" r=".5" transform="rotate(-6.01 -2268.76 3825.046)"/><circle class="cls-2" cx="429.78" cy="308.78" r=".5" transform="rotate(-6 -2270.924 3830.915)"/><circle class="cls-2" cx="431.77" cy="308.58" r=".5" transform="rotate(-6 -2268.905 3830.734)"/><circle class="cls-2" cx="433.76" cy="308.37" r=".5" transform="rotate(-6 -2266.887 3830.552)"/><circle class="cls-2" cx="435.75" cy="308.16" r=".5" transform="rotate(-6 -2264.963 3830.366)"/><circle class="cls-2" cx="437.74" cy="307.95" r=".5" transform="rotate(-6 -2262.94 3830.09)"/><circle class="cls-2" cx="439.73" cy="307.74" r=".5" transform="rotate(-6 -2260.46 3830.22)"/><circle class="cls-2" cx="441.72" cy="307.53" r=".5" transform="rotate(-6 -2258.717 3829.833)"/><circle class="cls-2" cx="417.43" cy="306.06" r=".5" transform="rotate(-6 -2282.76 3828.573)"/><circle class="cls-2" cx="415.44" cy="306.27" r=".5" transform="rotate(-6 -2285.24 3828.443)"/><circle class="cls-2" cx="416.23" cy="304.18" r=".5" transform="rotate(-6 -2284.462 3826.379)"/><circle class="cls-2" cx="435.33" cy="304.18" r=".5" transform="rotate(-6 -2265.326 3826.33)"/><circle class="cls-2" cx="452.35" cy="284.29" r=".5" transform="rotate(-6 -2248.308 3806.461)"/><circle class="cls-2" cx="453.13" cy="282.2" r=".5" transform="rotate(-6 -2247.53 3804.397)"/><circle class="cls-2" cx="451.14" cy="282.41" r=".5" transform="rotate(-6 -2248.991 3804.895)"/><circle class="cls-2" cx="449.94" cy="280.52" r=".5" transform="rotate(-6 -2250.79 3802.696)"/><circle class="cls-2" cx="451.93" cy="280.31" r=".5" transform="rotate(-6 -2248.771 3802.515)"/><circle class="cls-2" cx="453.92" cy="280.1" r=".5" transform="rotate(-6 -2246.752 3802.333)"/><circle class="cls-2" cx="454.7" cy="278.01" r=".5" transform="rotate(-6 -2245.975 3800.27)"/><circle class="cls-2" cx="452.71" cy="278.22" r=".5" transform="rotate(-6 -2247.898 3800.456)"/><circle class="cls-2" cx="450.72" cy="278.43" r=".5" transform="rotate(-6 -2250.012 3800.632)"/><circle class="cls-2" cx="448.73" cy="278.64" r=".5" transform="rotate(-6 -2251.935 3800.818)"/><circle class="cls-2" cx="447.53" cy="276.75" r=".5" transform="rotate(-6 -2253.175 3798.935)"/><circle class="cls-2" cx="449.52" cy="276.54" r=".5" transform="rotate(-6 -2251.157 3798.754)"/><circle class="cls-2" cx="451.51" cy="276.34" r=".5" transform="rotate(-6 -2249.138 3798.573)"/><circle class="cls-2" cx="453.5" cy="276.13" r=".5" transform="rotate(-6 -2247.12 3798.392)"/><circle class="cls-2" cx="455.49" cy="275.92" r=".5" transform="rotate(-6 -2244.634 3798.426)"/><circle class="cls-2" cx="454.28" cy="274.03" r=".5" transform="rotate(-6 -2246.432 3796.227)"/><circle class="cls-2" cx="452.29" cy="274.24" r=".5" transform="rotate(-6.01 -2244.207 3790.328)"/><circle class="cls-2" cx="450.31" cy="274.45" r=".5" transform="rotate(-6 -2250.284 3796.695)"/><circle class="cls-2" cx="448.32" cy="274.66" r=".5" transform="rotate(-6 -2252.302 3796.876)"/><circle class="cls-2" cx="446.33" cy="274.87" r=".5" transform="rotate(-6 -2254.32 3797.058)"/><circle class="cls-2" cx="444.34" cy="275.08" r=".5" transform="rotate(-6.03 -2243.985 3778.936)"/><circle class="cls-2" cx="443.13" cy="273.19" r=".5" transform="rotate(-6 -2257.49 3795.457)"/><circle class="cls-2" cx="441.15" cy="273.4" r=".5" transform="rotate(-6 -2259.508 3795.638)"/><circle class="cls-2" cx="439.16" cy="273.61" r=".5" transform="rotate(-6 -2261.527 3795.819)"/><circle class="cls-2" cx="445.12" cy="272.98" r=".5" transform="rotate(-6.01 -2251.4 3789.09)"/><circle class="cls-2" cx="447.11" cy="272.78" r=".5" transform="rotate(-6 -2253.543 3794.994)"/><circle class="cls-2" cx="449.1" cy="272.57" r=".5" transform="rotate(-6 -2251.057 3795.028)"/><circle class="cls-2" cx="451.09" cy="272.36" r=".5" transform="rotate(-6 -2249.596 3794.53)"/><circle class="cls-2" cx="443.92" cy="271.1" r=".5" transform="rotate(-6 -2256.802 3793.292)"/><circle class="cls-2" cx="441.93" cy="271.31" r=".5" transform="rotate(-6 -2258.263 3793.79)"/><circle class="cls-2" cx="439.94" cy="271.52" r=".5" transform="rotate(-6 -2260.653 3793.76)"/><circle class="cls-2" cx="437.95" cy="271.73" r=".5" transform="rotate(-6 -2262.767 3793.936)"/><circle class="cls-2" cx="435.96" cy="271.94" r=".5" transform="rotate(-6 -2264.69 3794.122)"/><circle class="cls-2" cx="433.98" cy="272.15" r=".5" transform="rotate(-6 -2266.709 3794.304)"/><circle class="cls-2" cx="393.09" cy="294.54" r=".5" transform="rotate(-6 -2307.125 3817.06)"/><circle class="cls-2" cx="391.1" cy="294.75" r=".5" transform="rotate(-6 -2309.606 3816.93)"/><circle class="cls-2" cx="389.9" cy="292.87" r=".5" transform="rotate(-6.01 -2306.595 3808.924)"/><circle class="cls-2" cx="388.7" cy="290.98" r=".5" transform="rotate(-6 -2311.53 3813.48)"/><circle class="cls-2" cx="390.69" cy="290.77" r=".5" transform="rotate(-6 -2309.973 3812.988)"/><circle class="cls-2" cx="392.67" cy="290.56" r=".5" transform="rotate(-6 -2307.955 3812.806)"/><circle class="cls-2" cx="394.66" cy="290.35" r=".5" transform="rotate(-6 -2306.027 3812.525)"/><circle class="cls-2" cx="393.46" cy="288.47" r=".5" transform="rotate(-6 -2307.172 3810.647)"/><circle class="cls-2" cx="391.47" cy="288.68" r=".5" transform="rotate(-6 -2309.19 3810.828)"/><circle class="cls-2" cx="389.48" cy="288.89" r=".5" transform="rotate(-6 -2311.118 3811.11)"/><circle class="cls-2" cx="388.28" cy="287" r=".5" transform="rotate(-6 -2312.36 3809.227)"/><circle class="cls-2" cx="390.27" cy="286.79" r=".5" transform="rotate(-6 -2310.431 3808.945)"/><circle class="cls-2" cx="392.26" cy="286.59" r=".5" transform="rotate(-6 -2308.412 3808.764)"/><circle class="cls-2" cx="394.24" cy="286.38" r=".5" transform="rotate(-6.01 -2302.245 3802.467)"/><circle class="cls-2" cx="395.03" cy="284.28" r=".5" transform="rotate(-6 -2305.616 3806.52)"/><circle class="cls-2" cx="393.04" cy="284.49" r=".5" transform="rotate(-6.03 -2295.127 3788.427)"/><circle class="cls-2" cx="391.05" cy="284.7" r=".5" transform="rotate(-6 -2309.191 3807.193)"/><circle class="cls-2" cx="393.83" cy="282.4" r=".5" transform="rotate(-6 -2306.852 3804.541)"/><circle class="cls-2" cx="395.82" cy="282.19" r=".5" transform="rotate(-6 -2304.833 3804.36)"/><circle class="cls-2" cx="397.8" cy="281.98" r=".5" transform="rotate(-6 -2302.91 3804.174)"/><circle class="cls-2" cx="402.57" cy="279.47" r=".5" transform="rotate(-6 -2298.09 3801.652)"/><circle class="cls-2" cx="400.58" cy="279.68" r=".5" transform="rotate(-6 -2299.647 3802.144)"/><circle class="cls-2" cx="398.59" cy="279.89" r=".5" transform="rotate(-6 -2302.037 3802.115)"/><circle class="cls-2" cx="396.6" cy="280.1" r=".5" transform="rotate(-6 -2304.055 3802.296)"/><circle class="cls-2" cx="397.39" cy="278" r=".5" transform="rotate(-6.03 -2290.88 3781.892)"/><circle class="cls-2" cx="399.38" cy="277.79" r=".5" transform="rotate(-6 -2301.164 3800.056)"/><circle class="cls-2" cx="401.36" cy="277.58" r=".5" transform="rotate(-6 -2299.236 3799.774)"/><circle class="cls-2" cx="403.35" cy="277.37" r=".5" transform="rotate(-6 -2297.312 3799.588)"/><circle class="cls-2" cx="405.34" cy="277.17" r=".5" transform="rotate(-6 -2295.294 3799.407)"/><circle class="cls-2" cx="407.33" cy="276.96" r=".5" transform="rotate(-6 -2293.366 3799.125)"/><circle class="cls-2" cx="409.32" cy="276.75" r=".5" transform="rotate(-6 -2291.347 3798.944)"/><circle class="cls-2" cx="404.14" cy="275.28" r=".5" transform="rotate(-6 -2296.53 3797.429)"/><circle class="cls-2" cx="402.15" cy="275.49" r=".5" transform="rotate(-6.03 -2286.179 3779.379)"/><circle class="cls-2" cx="400.16" cy="275.7" r=".5" transform="rotate(-6 -2300.476 3797.891)"/><circle class="cls-2" cx="391.89" cy="292.66" r=".5" transform="rotate(-6 -2308.637 3814.875)"/><circle class="cls-2" cx="393.88" cy="292.45" r=".5" transform="rotate(-6 -2306.714 3814.689)"/><circle class="cls-2" cx="436.75" cy="269.84" r=".5" transform="rotate(-6 -2263.912 3792.059)"/><circle class="cls-2" cx="438.74" cy="269.63" r=".5" transform="rotate(-6 -2261.427 3792.093)"/><circle class="cls-2" cx="440.73" cy="269.42" r=".5" transform="rotate(-6 -2259.78 3791.701)"/><circle class="cls-2" cx="437.32" cy="303.97" r=".5" transform="rotate(-6 -2262.845 3826.46)"/><circle class="cls-2" cx="441.4" cy="323.65" r=".5" transform="rotate(-6 -2259.266 3845.78)"/><circle class="cls-2" cx="443.39" cy="323.44" r=".5" transform="rotate(-6 -2257.343 3845.594)"/><circle class="cls-2" cx="445.38" cy="323.23" r=".5" transform="rotate(-6 -2255.324 3845.413)"/><circle class="cls-2" cx="445.33" cy="313.18" r=".5" transform="rotate(-6 -2255.372 3835.365)"/><circle class="cls-2" cx="446.53" cy="315.07" r=".5" transform="rotate(-6 -2253.945 3837.353)"/><circle class="cls-2" cx="447.73" cy="316.95" r=".5" transform="rotate(-6 -2252.89 3839.13)"/><path class="cls-2" d="M447.24 318.65a3.64 3.64 0 0 0-.76-2.09l-3.86-5.12a.5.5 0 0 0-1 .12.49.49 0 0 0 .27.38l-1 .76.32.43a.49.49 0 0 0-.37.53.5.5 0 0 0 .55.44.49.49 0 0 0 .37-.24l.86 1.15h-.12a.5.5 0 0 0 .1 1 .49.49 0 0 0 .43-.44l1.74 2.3a1.69 1.69 0 0 1 .34.94.49.49 0 0 0-.21 0 .5.5 0 0 0-.44.55.49.49 0 0 0 .42.43 1.76 1.76 0 0 1-.46.52 1.7 1.7 0 0 1-2.42-.33l-3-3.92a.49.49 0 0 0 0-.15.49.49 0 0 0-.46-.44l-.48-.63-1.24.94a.5.5 0 1 0-.25.89h.13l.76 1a.5.5 0 0 0 .31.92.49.49 0 0 0 .28-.13l.78 1a.5.5 0 1 0 .53.71l.85 1.13.05.06a.5.5 0 1 0 .36.43.47.47 0 0 0 0-.06 3.75 3.75 0 0 0 5 .2c.11-.08.21-.19.31-.28a.49.49 0 0 0 .27.06.5.5 0 0 0 .45-.55.49.49 0 0 0-.09-.22 3.83 3.83 0 0 0 .59-1.37.49.49 0 0 0 .09-.92z" transform="translate(-382.97 -262.98)"/><circle class="cls-2" cx="448.15" cy="320.93" r=".5" transform="rotate(-6 -2251.97 3843.484)"/><circle class="cls-2" cx="411.15" cy="322.81" r=".5" transform="rotate(-6 -2289.55 3844.959)"/><circle class="cls-2" cx="417.11" cy="322.18" r=".5" transform="rotate(-6 -2283.032 3844.726)"/><circle class="cls-2" cx="416.33" cy="324.28" r=".5" transform="rotate(-6.01 -2280.168 3840.397)"/><circle class="cls-2" cx="409.57" cy="327" r=".5" transform="rotate(-6 -2290.924 3849.287)"/><circle class="cls-2" cx="411.56" cy="326.79" r=".5" transform="rotate(-6 -2289.092 3849)"/><circle class="cls-2" cx="410.36" cy="324.9" r=".5" transform="rotate(-6 -2290.332 3847.118)"/><circle class="cls-2" cx="413.55" cy="326.58" r=".5" transform="rotate(-6 -2287.163 3848.719)"/><circle class="cls-2" cx="415.54" cy="326.37" r=".5" transform="rotate(-6 -2285.145 3848.538)"/></svg>